<?xml version="1.0" encoding="UTF-8" standalone="no"?>
<svg width="404.283mm" height="160.867mm"
 xmlns="http://www.w3.org/2000/svg" xmlns:xlink="http://www.w3.org/1999/xlink"  version="1.2" baseProfile="tiny">
<title>Qt Svg Document</title>
<desc>Generated with Qt</desc>
<defs>
</defs>
<g fill="none" stroke="black" stroke-width="1" fill-rule="evenodd" stroke-linecap="square" stroke-linejoin="bevel" >

<g fill="none" stroke="#000000" stroke-opacity="1" stroke-width="1" stroke-linecap="square" stroke-linejoin="bevel" transform="matrix(1,0,0,1,0,0)"
font-family="Ubuntu" font-size="13.3333" font-weight="400" font-style="normal"
>
</g>

<g fill="#000000" fill-opacity="1" stroke="none" transform="matrix(1,0,0,1,0,0)"
font-family="Ubuntu" font-size="13.3333" font-weight="400" font-style="normal"
>
<path vector-effect="non-scaling-stroke" fill-rule="evenodd" d="M0,0 L1528,0 L1528,608 L0,608 L0,0"/>
</g>

<g fill="none" stroke="#000000" stroke-opacity="1" stroke-width="1" stroke-linecap="square" stroke-linejoin="bevel" transform="matrix(1,0,0,1,0,0)"
font-family="Ubuntu" font-size="13.3333" font-weight="400" font-style="normal"
>
</g>

<g fill="#000000" fill-opacity="1" stroke="#000000" stroke-opacity="1" stroke-width="1" stroke-linecap="square" stroke-linejoin="bevel" transform="matrix(0.999346,0,0,0.998355,0,0)"
font-family="Ubuntu" font-size="13.3333" font-weight="400" font-style="normal"
>
</g>

<g fill="#007fff" fill-opacity="1" stroke="#007fff" stroke-opacity="1" stroke-width="1" stroke-linecap="square" stroke-linejoin="bevel" transform="matrix(0.999346,0,0,0.998355,0,0)"
font-family="Ubuntu" font-size="13.3333" font-weight="400" font-style="normal"
>
<polyline fill="none" vector-effect="non-scaling-stroke" points="494.635,110.195 494.635,583.398 " />
<polyline fill="none" vector-effect="non-scaling-stroke" points="499.367,114.927 499.367,578.666 " />
<polyline fill="none" vector-effect="non-scaling-stroke" points="612.936,114.927 612.936,469.829 " />
<polyline fill="none" vector-effect="non-scaling-stroke" points="617.668,114.927 617.668,228.496 " />
<polyline fill="none" vector-effect="non-scaling-stroke" points="617.668,233.228 617.668,346.796 " />
<polyline fill="none" vector-effect="non-scaling-stroke" points="617.668,351.528 617.668,465.097 " />
<polyline fill="none" vector-effect="non-scaling-stroke" points="494.635,583.398 873.197,583.398 " />
<polyline fill="none" vector-effect="non-scaling-stroke" points="499.367,578.666 868.465,578.666 " />
<polyline fill="none" vector-effect="non-scaling-stroke" points="612.936,469.829 868.465,469.829 " />
<polyline fill="none" vector-effect="non-scaling-stroke" points="617.668,465.097 868.465,465.097 " />
<polyline fill="none" vector-effect="non-scaling-stroke" points="617.668,351.528 868.465,351.528 " />
<polyline fill="none" vector-effect="non-scaling-stroke" points="617.668,346.796 868.465,346.796 " />
<polyline fill="none" vector-effect="non-scaling-stroke" points="873.197,583.398 873.197,110.195 " />
<polyline fill="none" vector-effect="non-scaling-stroke" points="868.465,578.666 868.465,469.829 " />
<polyline fill="none" vector-effect="non-scaling-stroke" points="868.465,465.097 868.465,351.528 " />
<polyline fill="none" vector-effect="non-scaling-stroke" points="868.465,346.796 868.465,233.228 " />
<polyline fill="none" vector-effect="non-scaling-stroke" points="868.465,228.496 868.465,114.927 " />
<polyline fill="none" vector-effect="non-scaling-stroke" points="873.197,110.195 494.635,110.195 " />
<polyline fill="none" vector-effect="non-scaling-stroke" points="868.465,114.927 617.668,114.927 " />
<polyline fill="none" vector-effect="non-scaling-stroke" points="612.936,114.927 499.367,114.927 " />
<polyline fill="none" vector-effect="non-scaling-stroke" points="868.465,228.496 617.668,228.496 " />
<polyline fill="none" vector-effect="non-scaling-stroke" points="868.465,233.228 617.668,233.228 " />
</g>

<g fill="#007fff" fill-opacity="1" stroke="#007fff" stroke-opacity="1" stroke-width="1" stroke-linecap="square" stroke-linejoin="bevel" transform="matrix(0.999346,0,0,0.998355,0,0)"
font-family="Ubuntu" font-size="13.3333" font-weight="400" font-style="normal"
>
</g>

<g fill="#007fff" fill-opacity="1" stroke="#007fff" stroke-opacity="1" stroke-width="1" stroke-linecap="square" stroke-linejoin="bevel" transform="matrix(1,0,0,1,0,0)"
font-family="Ubuntu" font-size="13.3333" font-weight="400" font-style="normal"
>
</g>

<g fill="none" stroke="#000000" stroke-opacity="1" stroke-width="1" stroke-linecap="square" stroke-linejoin="bevel" transform="matrix(1,0,0,1,0,0)"
font-family="Ubuntu" font-size="13.3333" font-weight="400" font-style="normal"
>
</g>
</g>
</svg>
